/* XPM */
static char * tagzilla_big_xpm[] = {
"32 32 408 2",
"  	c None",
". 	c #2E2E2E",
"+ 	c #6D6D6D",
"@ 	c #6B6B6B",
"# 	c #FFFFFF",
"$ 	c #A8FC6B",
"% 	c #A1FB5F",
"& 	c #9EF65E",
"* 	c #A0F65E",
"= 	c #9EF45D",
"- 	c #9BF15B",
"; 	c #9AF25C",
"> 	c #9EF65D",
", 	c #A1F65F",
"' 	c #A4FB61",
") 	c #A6FE61",
"! 	c #A3FC60",
"~ 	c #A0FA5E",
"{ 	c #9BF45D",
"] 	c #96EC5B",
"^ 	c #92E458",
"/ 	c #91E258",
"( 	c #91E458",
"_ 	c #95E959",
": 	c #98EF5B",
"< 	c #9BF45C",
"[ 	c #95EA5A",
"} 	c #8EDE57",
"| 	c #99D76E",
"1 	c #F5F9F2",
"2 	c #FEFEFE",
"3 	c #6DF112",
"4 	c #5FE800",
"5 	c #59D700",
"6 	c #54CC01",
"7 	c #56C606",
"8 	c #5CCA11",
"9 	c #67CC20",
"0 	c #67CF1E",
"a 	c #5BCD14",
"b 	c #5EE506",
"c 	c #66FA00",
"d 	c #64F400",
"e 	c #60E900",
"f 	c #5ADA00",
"g 	c #53CB00",
"h 	c #51BD06",
"i 	c #5EBA1D",
"j 	c #60BD20",
"k 	c #63C51F",
"l 	c #61CF15",
"m 	c #5BD804",
"n 	c #59D900",
"o 	c #56D200",
"p 	c #4FC100",
"q 	c #61B825",
"r 	c #D9DFD5",
"s 	c #F2F2F2",
"t 	c #6C6C6C",
"u 	c #68E312",
"v 	c #55D000",
"w 	c #4BB801",
"x 	c #58A522",
"y 	c #749F56",
"z 	c #89A177",
"A 	c #9EA897",
"B 	c #96A49D",
"C 	c #4F707C",
"D 	c #52BB29",
"E 	c #64F500",
"F 	c #61EB00",
"G 	c #5ADD00",
"H 	c #48B000",
"I 	c #569F22",
"J 	c #A2A79E",
"K 	c #A6ABA2",
"L 	c #A9ADA6",
"M 	c #9DB58C",
"N 	c #83B85D",
"O 	c #5AC60E",
"P 	c #48AF00",
"Q 	c #58A621",
"R 	c #B0B5AC",
"S 	c #DDDDDD",
"T 	c #5FCE12",
"U 	c #4AB202",
"V 	c #5DA32B",
"W 	c #839874",
"X 	c #959694",
"Y 	c #A0A0A0",
"Z 	c #AEAEAE",
"` 	c #718C98",
" .	c #375F6F",
"..	c #51B72A",
"+.	c #60EB00",
"@.	c #5BDE00",
"#.	c #55CE00",
"$.	c #4CBA00",
"%.	c #686547",
"&.	c #8D3D8D",
"*.	c #9F9F9F",
"=.	c #BABABA",
"-.	c #C5C5C5",
";.	c #C3C3C3",
">.	c #B7B8B5",
",.	c #9DB38E",
"'.	c #62B32B",
").	c #44A202",
"!.	c #539D1F",
"~.	c #9FA49B",
"{.	c #D5D5D5",
"].	c #59BF12",
"^.	c #53A51A",
"/.	c #7F996C",
"(.	c #969695",
"_.	c #ACACAC",
":.	c #CACACA",
"<.	c #C1C5C7",
"[.	c #5E7D8A",
"}.	c #446978",
"|.	c #51B52B",
"1.	c #5EE500",
"2.	c #58D600",
"3.	c #51C600",
"4.	c #762A70",
"5.	c #6D2D6D",
"6.	c #AAAAAA",
"7.	c #F1F1F1",
"8.	c #E7E7E7",
"9.	c #D5D6D4",
"0.	c #A9BE99",
"a.	c #58A424",
"b.	c #539C20",
"c.	c #58B817",
"d.	c #6CA345",
"e.	c #979B95",
"f.	c #D2D2D2",
"g.	c #F0F0F0",
"h.	c #EEEFF0",
"i.	c #8EA2A9",
"j.	c #4B6E7D",
"k.	c #5EE400",
"l.	c #57D400",
"m.	c #50C300",
"n.	c #658A34",
"o.	c #80237E",
"p.	c #722F72",
"q.	c #ADADAD",
"r.	c #E6E6E6",
"s.	c #FCFCFC",
"t.	c #F7F7F7",
"u.	c #E1E2E0",
"v.	c #84B661",
"w.	c #5BA527",
"x.	c #9FA59C",
"y.	c #D4D4D4",
"z.	c #67B82E",
"A.	c #8DAA77",
"B.	c #A5A6A5",
"C.	c #CFCFCF",
"D.	c #FDFDFD",
"E.	c #FBFBFB",
"F.	c #98ABB3",
"G.	c #3D6474",
"H.	c #57D500",
"I.	c #51C002",
"J.	c #745F56",
"K.	c #671166",
"L.	c #662A66",
"M.	c #F8F8F8",
"N.	c #C5D8B8",
"O.	c #6AB436",
"P.	c #A4AAA0",
"Q.	c #A4D482",
"R.	c #B2BBAC",
"S.	c #B6B6B6",
"T.	c #7E98A2",
"U.	c #436978",
"V.	c #52B82B",
"W.	c #5EE600",
"X.	c #57B90C",
"Y.	c #925084",
"Z.	c #832183",
"`.	c #773277",
" +	c #EEF2EB",
".+	c #97C777",
"++	c #AEB2AB",
"@+	c #D6D6D6",
"#+	c #EFEFEF",
"$+	c #CCCCCC",
"%+	c #CECECE",
"&+	c #F4F4F4",
"*+	c #ABB9BF",
"=+	c #507381",
"-+	c #54B92C",
";+	c #55B80B",
">+	c #7E3F70",
",+	c #6F146F",
"'+	c #6C2C6C",
")+	c #E2E2E2",
"!+	c #DEDEDE",
"~+	c #E9E9E9",
"{+	c #ECECEC",
"]+	c #9CADB4",
"^+	c #426777",
"/+	c #5FE700",
"(+	c #57B70D",
"_+	c #8B447F",
":+	c #822182",
"<+	c #7A347A",
"[+	c #F5F5F5",
"}+	c #7C95A0",
"|+	c #3F6575",
"1+	c #52B82A",
"2+	c #5EE700",
"3+	c #57B111",
"4+	c #862783",
"5+	c #731673",
"6+	c #6E2D6E",
"7+	c #899EA7",
"8+	c #4D707F",
"9+	c #55BB2D",
"0+	c #59B313",
"a+	c #993796",
"b+	c #811F81",
"c+	c #B0BFC5",
"d+	c #436878",
"e+	c #57B010",
"f+	c #852482",
"g+	c #6E136E",
"h+	c #6A2B6A",
"i+	c #F0F2F2",
"j+	c #79939E",
"k+	c #3F6675",
"l+	c #56B010",
"m+	c #852582",
"n+	c #771977",
"o+	c #712F71",
"p+	c #DFE2E3",
"q+	c #718D98",
"r+	c #4E717F",
"s+	c #58B111",
"t+	c #933190",
"u+	c #882488",
"v+	c #7F367F",
"w+	c #C4CDD0",
"x+	c #6E8A96",
"y+	c #55BC2C",
"z+	c #56AF0F",
"A+	c #7C1D79",
"B+	c #670E67",
"C+	c #652865",
"D+	c #EFF0F1",
"E+	c #90A5AE",
"F+	c #53BB2A",
"G+	c #5FE900",
"H+	c #5AB413",
"I+	c #822082",
"J+	c #793379",
"K+	c #D7DADB",
"L+	c #6B8893",
"M+	c #416776",
"N+	c #54BD2B",
"O+	c #60EA00",
"P+	c #862683",
"Q+	c #701470",
"R+	c #6B2C6B",
"S+	c #99AAB0",
"T+	c #518171",
"U+	c #5DDF12",
"V+	c #59B213",
"W+	c #8A258A",
"X+	c #803780",
"Y+	c #FBFCFC",
"Z+	c #A3B3BA",
"`+	c #43815B",
" @	c #66F800",
".@	c #5DE300",
"+@	c #54CE00",
"@@	c #58AF12",
"#@	c #892985",
"$@	c #6C116C",
"%@	c #692B69",
"&@	c #FBFBFC",
"*@	c #B9C6CB",
"=@	c #547684",
"-@	c #52963F",
";@	c #5BDD00",
">@	c #58B212",
",@	c #993F92",
"'@	c #842284",
")@	c #783278",
"!@	c #F5FCEF",
"~@	c #9EE76B",
"{@	c #F8FCF4",
"]@	c #B7C4CA",
"^@	c #708B96",
"/@	c #4B7576",
"(@	c #61E016",
"_@	c #61ED00",
":@	c #52C700",
"<@	c #4FB904",
"[@	c #775E5B",
"}@	c #6F136E",
"|@	c #682A68",
"1@	c #F8FDF4",
"2@	c #87E147",
"3@	c #A5EC74",
"4@	c #EBF7E2",
"5@	c #F5F6F6",
"6@	c #9EADB4",
"7@	c #5A7886",
"8@	c #499541",
"9@	c #66F700",
"0@	c #50C400",
"a@	c #677C3D",
"b@	c #7E217E",
"c@	c #743174",
"d@	c #DAF3C8",
"e@	c #66E20F",
"f@	c #8BF044",
"g@	c #DEF3CF",
"h@	c #BBC4C8",
"i@	c #77929D",
"j@	c #7A959F",
"k@	c #476C7B",
"l@	c #6ECF3B",
"m@	c #58D700",
"n@	c #52C800",
"o@	c #4EBF00",
"p@	c #4AB600",
"q@	c #618532",
"r@	c #7E227C",
"s@	c #ABDF88",
"t@	c #61E307",
"u@	c #6DE818",
"v@	c #82B476",
"w@	c #6AA76C",
"x@	c #6EA96E",
"y@	c #57B834",
"z@	c #5DE301",
"A@	c #51C700",
"B@	c #4DBD00",
"C@	c #4AB500",
"D@	c #46AA00",
"E@	c #429108",
"F@	c #774668",
"G@	c #883F87",
"H@	c #E0E9DA",
"I@	c #80D943",
"J@	c #5BD903",
"K@	c #5ADB00",
"L@	c #5ADC00",
"M@	c #55D100",
"N@	c #4BB700",
"O@	c #47AD00",
"P@	c #44A500",
"Q@	c #419E00",
"R@	c #3C9300",
"S@	c #368300",
"T@	c #346C09",
"U@	c #55663B",
"V@	c #A8ABA6",
"W@	c #D4DBCF",
"X@	c #70C336",
"Y@	c #4DBB00",
"Z@	c #47AE00",
"`@	c #43A200",
" #	c #3E9800",
".#	c #3A8E00",
"+#	c #368500",
"@#	c #337D00",
"##	c #317900",
"$#	c #2F7100",
"%#	c #2B6900",
"&#	c #286300",
"*#	c #2A6601",
"=#	c #608C41",
"-#	c #E4E4E4",
";#	c #CFD0CE",
">#	c #79AC55",
",#	c #659941",
"'#	c #608F3E",
")#	c #5C883F",
"!#	c #5A823F",
"~#	c #577D3F",
"{#	c #56793F",
"]#	c #55763F",
"^#	c #54753F",
"/#	c #53723F",
"(#	c #54743F",
"_#	c #587B3F",
":#	c #628C44",
"<#	c #8DC865",
"[#	c #B5DE99",
"}#	c #CDCDCD",
"|#	c #A2A2A2",
"1#	c #A1A1A1",
"2#	c #A6A6A6",
"3#	c #BCBCBC",
"4#	c #D8D8D8",
"5#	c #EBEBEB",
"6#	c #F9F9F9",
"7#	c #D3D3D3",
"8#	c #E0E0E0",
"9#	c #E5E5E5",
"0#	c #6E6E6E",
"a#	c #6F6F6F",
". + + + + + + + + + + + + + + + + + + + + + + + + + + + + + + . ",
"@ # # # $ % & * = - ; > , ' ) ! ~ { ] ^ / ( _ : < ; [ } | 1 2 @ ",
"@ # # # 3 4 5 6 7 8 9 0 a b c d e f g h i j k l m n o p q r s t ",
"@ # # # u v w x y z A B C D E F G g H I J K L M N O p P Q R S t ",
"@ # # 2 T U V W X Y Z `  ...+.@.#.$.%.&.*.=.-.;.>.,.'.).!.~.{.+ ",
"@ # # 2 ].^./.(._.:.<.[.}.|.1.2.3.P 4.5.6.S 7.7.8.9.0.a.b.~.{.+ ",
"@ # # 2 c.d.e._.f.g.h.i.j.|.k.l.m.n.o.p.q.r.s.2 s.t.u.v.w.x.y.+ ",
"@ # # 2 z.A.B.C.7.D.E.F.G.|.1.H.I.J.K.L.q.r.D.# # # M.N.O.P.{.+ ",
"@ # # 2 Q.R.S.8.s.# D.T.U.V.W.H.X.Y.Z.`.q.r.D.# # # 2  +.+++@++ ",
"@ # # # #+$+%+&+2 # 2 *+=+-+W.H.;+>+,+'+q.r.D.# # # # E.)+-.!+t ",
"@ # # # M.~+{+s.# # 2 ]+^+V./+H.(+_+:+<+q.r.D.# # # # 2 [+r.g.t ",
"@ # # # 2 s.D.# # # 2 }+|+1+2+H.3+4+5+6+q.r.D.# # # # # 2 s.D.@ ",
"@ # # # # # # # # # 2 7+8+9+W.H.0+a+b+`.q.r.D.# # # # # # # # @ ",
"@ # # # # # # # # # 2 c+d+V.W.H.e+f+g+h+q.r.D.# # # # # # # # @ ",
"@ # # # # # # # # # i+j+k+V.W.H.l+m+n+o+q.r.D.# # # # # # # # @ ",
"@ # # # # # # # # # p+q+r+9+2+H.s+t+u+v+q.r.D.# # # # # # # # @ ",
"@ # # # # # # # # # E.w+x+y+4 H.z+A+B+C+q.r.D.# # # # # # # # @ ",
"@ # # # # # # # # # D+E+^+F+G+H.H+a+I+J+q.r.D.# # # # # # # # @ ",
"@ # # # # # # # # # K+L+M+N+O+l.3+P+Q+R+q.r.D.# # # # # # # # @ ",
"@ # # # # # # # # # E.S+T+U+4 o V+a+W+X+q.r.D.# # # # # # # # @ ",
"@ # # # # # # # # Y+Z+8+`+ @.@+@@@#@$@%@q.r.D.# # # # # # # # @ ",
"@ # # # # # # # # &@*@=@-@E ;@g >@,@'@)@q.r.D.# # # # # # # # @ ",
"@ # !@~@{@2 # # s.]@^@/@(@_@2.:@<@[@}@|@q.r.D.# # # # # # # # @ ",
"@ # 1@2@3@4@2 # 5@6@7@8@9@.@v 0@$.a@b@c@q.r.D.# # # # # # # # @ ",
"@ # 2 d@e@f@g@h@i@j@k@l@G+m@n@o@p@q@r@h+q.r.D.# # # # # # # # @ ",
"@ # # [+s@t@u@v@w@x@y@z@H.A@B@C@D@E@F@G@q.r.D.# # # # # # # # @ ",
"@ # # s.H@I@J@K@L@n M@m.N@O@P@Q@R@S@T@U@V@r.D.# # # # # # # # @ ",
"@ # # # t.W@X@Y@C@Z@`@ #.#+#@###$#%#&#*#=#-#s.# # # # # # # # @ ",
"@ # # # 2 7.;#>#,#'#)#!#~#{#]#^#/#/#(#_#:#>#<#[#s.2 # # # # # @ ",
"@ # # # # s.g.}#Z |#1#1#1#1#1#1#1#1#1#1#2#3#4#-#5#6## # # # # @ ",
"@ # # # # # D.7.S y.7#7#7#7#7#7#7#7#7#7#y.4#8#9#5#6## # # # # @ ",
". + + + + + + + 0#a#a#a#a#a#a#a#a#a#a#a#a#a#0#0#0#+ + + + + + . "};
