/* XPM */
static char * tagzilla_16_xpm[] = {
"16 16 41 1",
" 	c None",
".	c #51C500",
"+	c #50C301",
"@	c #52C600",
"#	c #315A6B",
"$	c #57851F",
"%	c #5D3447",
"&	c #58B60F",
"*	c #651D5B",
"=	c #620062",
"-	c #6F8A3E",
";	c #8A2788",
">	c #992E99",
",	c #57A712",
"'	c #6E136C",
")	c #871F87",
"!	c #5EA41D",
"~	c #852284",
"{	c #57A415",
"]	c #70116F",
"^	c #710C71",
"/	c #315A69",
"(	c #315A6A",
"_	c #60A81E",
":	c #962C96",
"<	c #8F268F",
"[	c #3C8140",
"}	c #620361",
"|	c #7F187F",
"1	c #47A421",
"2	c #50BE00",
"3	c #5C3D43",
"4	c #7F1B7D",
"5	c #49AA1A",
"6	c #3A7E43",
"7	c #4A9E00",
"8	c #4EB700",
"9	c #54A410",
"0	c #52BE03",
"a	c #51C302",
"b	c #4CB312",
"                ",
"                ",
" .....+........ ",
" @@@  #.@@  @@@ ",
" @    #.$%    @ ",
"     ##&*=      ",
"      #-;>      ",
"     ##,')      ",
"      #!~>      ",
"     ##{]^      ",
"     /(_:<      ",
"@@  (/[@}|      ",
" @1(//@234      ",
" @56/@@7890     ",
"  @ab@@@@@@@    ",
"                "};
